<svg width="31" height="35" viewBox="0 0 31 35" fill="none" xmlns="http://www.w3.org/2000/svg">
<path d="M3.50939 34.2482C2.6043 34.2482 1.83822 33.9346 1.21113 33.3075C0.58405 32.6804 0.270508 31.9144 0.270508 31.0093V7.02871C0.270508 6.12362 0.58405 5.35753 1.21113 4.73045C1.83822 4.10336 2.6043 3.78982 3.50939 3.78982H5.98996V0H8.74644V3.78982H22.3219V0H25.0094V3.78982H27.49C28.395 3.78982 29.1611 4.10336 29.7882 4.73045C30.4153 5.35753 30.7288 6.12362 30.7288 7.02871V31.0093C30.7288 31.9144 30.4153 32.6804 29.7882 33.3075C29.1611 33.9346 28.395 34.2482 27.49 34.2482H3.50939ZM3.50939 31.5607H27.49C27.6279 31.5607 27.7542 31.5032 27.8689 31.3882C27.9839 31.2735 28.0413 31.1472 28.0413 31.0093V14.1954H2.95801V31.0093C2.95801 31.1472 3.01549 31.2735 3.13046 31.3882C3.24512 31.5032 3.37143 31.5607 3.50939 31.5607ZM2.95801 11.5079H28.0413V7.02871C28.0413 6.89075 27.9839 6.76444 27.8689 6.64977C27.7542 6.5348 27.6279 6.47732 27.49 6.47732H3.50939C3.37143 6.47732 3.24512 6.5348 3.13046 6.64977C3.01549 6.76444 2.95801 6.89075 2.95801 7.02871V11.5079ZM15.4997 20.9486C15.061 20.9486 14.6872 20.7941 14.3781 20.485C14.0693 20.1763 13.9149 19.8024 13.9149 19.3634C13.9149 18.9248 14.0693 18.5509 14.3781 18.2419C14.6872 17.9331 15.061 17.7787 15.4997 17.7787C15.9383 17.7787 16.3122 17.9331 16.6213 18.2419C16.93 18.5509 17.0844 18.9248 17.0844 19.3634C17.0844 19.8024 16.93 20.1763 16.6213 20.485C16.3122 20.7941 15.9383 20.9486 15.4997 20.9486ZM8.33301 20.9486C7.89435 20.9486 7.52049 20.7941 7.21142 20.485C6.90266 20.1763 6.74828 19.8024 6.74828 19.3634C6.74828 18.9248 6.90266 18.5509 7.21142 18.2419C7.52049 17.9331 7.89435 17.7787 8.33301 17.7787C8.77167 17.7787 9.14553 17.9331 9.45459 18.2419C9.76336 18.5509 9.91774 18.9248 9.91774 19.3634C9.91774 19.8024 9.76336 20.1763 9.45459 20.485C9.14553 20.7941 8.77167 20.9486 8.33301 20.9486ZM22.6663 20.9486C22.2277 20.9486 21.8538 20.7941 21.5448 20.485C21.236 20.1763 21.0816 19.8024 21.0816 19.3634C21.0816 18.9248 21.236 18.5509 21.5448 18.2419C21.8538 17.9331 22.2277 17.7787 22.6663 17.7787C23.105 17.7787 23.4789 17.9331 23.7879 18.2419C24.0967 18.5509 24.2511 18.9248 24.2511 19.3634C24.2511 19.8024 24.0967 20.1763 23.7879 20.485C23.4789 20.7941 23.105 20.9486 22.6663 20.9486ZM15.4997 27.9773C15.061 27.9773 14.6872 27.8228 14.3781 27.5137C14.0693 27.205 13.9149 26.8313 13.9149 26.3926C13.9149 25.9536 14.0693 25.5798 14.3781 25.271C14.6872 24.9619 15.061 24.8074 15.4997 24.8074C15.9383 24.8074 16.3122 24.9619 16.6213 25.271C16.93 25.5798 17.0844 25.9536 17.0844 26.3926C17.0844 26.8313 16.93 27.205 16.6213 27.5137C16.3122 27.8228 15.9383 27.9773 15.4997 27.9773ZM8.33301 27.9773C7.89435 27.9773 7.52049 27.8228 7.21142 27.5137C6.90266 27.205 6.74828 26.8313 6.74828 26.3926C6.74828 25.9536 6.90266 25.5798 7.21142 25.271C7.52049 24.9619 7.89435 24.8074 8.33301 24.8074C8.77167 24.8074 9.14553 24.9619 9.45459 25.271C9.76336 25.5798 9.91774 25.9536 9.91774 26.3926C9.91774 26.8313 9.76336 27.205 9.45459 27.5137C9.14553 27.8228 8.77167 27.9773 8.33301 27.9773ZM22.6663 27.9773C22.2277 27.9773 21.8538 27.8228 21.5448 27.5137C21.236 27.205 21.0816 26.8313 21.0816 26.3926C21.0816 25.9536 21.236 25.5798 21.5448 25.271C21.8538 24.9619 22.2277 24.8074 22.6663 24.8074C23.105 24.8074 23.4789 24.9619 23.7879 25.271C24.0967 25.5798 24.2511 25.9536 24.2511 26.3926C24.2511 26.8313 24.0967 27.205 23.7879 27.5137C23.4789 27.8228 23.105 27.9773 22.6663 27.9773Z" fill="#1C1B1F"/>
</svg>
