<svg width="43" height="43" viewBox="0 0 43 43" fill="none" xmlns="http://www.w3.org/2000/svg">
<mask id="mask0_78_615" style="mask-type:alpha" maskUnits="userSpaceOnUse" x="0" y="0" width="43" height="43">
<rect width="43" height="43" fill="#D9D9D9"/>
</mask>
<g mask="url(#mask0_78_615)">
<path d="M21.5001 38.5208C18.4728 38.5208 15.9989 38.0864 14.0785 37.2174C12.1582 36.3484 11.198 35.2267 11.198 33.8522C11.198 33.2159 11.4375 32.6174 11.9165 32.0569C12.3954 31.4965 13.0576 31.0152 13.903 30.6133L16.0185 32.5326C15.6348 32.6864 15.2315 32.8781 14.8087 33.1078C14.3861 33.3377 14.0968 33.58 13.9406 33.8347C14.2368 34.3701 15.1183 34.837 16.5851 35.2354C18.0516 35.634 19.6871 35.8333 21.4916 35.8333C23.2958 35.8333 24.9387 35.634 26.4204 35.2354C27.9019 34.837 28.7908 34.3701 29.0873 33.8347C28.9356 33.5615 28.6296 33.3101 28.1691 33.0804C27.7084 32.8508 27.2713 32.6589 26.8581 32.5049L28.9458 30.5582C29.8622 30.9787 30.5674 31.4691 31.0613 32.0296C31.5552 32.5901 31.8022 33.1951 31.8022 33.8446C31.8022 35.2215 30.842 36.345 28.9216 37.2152C27.0012 38.0856 24.5274 38.5208 21.5001 38.5208ZM21.5449 29.7865C24.5125 27.5376 26.74 25.3101 28.2273 23.104C29.7147 20.8976 30.4584 18.7068 30.4584 16.5317C30.4584 13.4402 29.4908 11.1065 27.5555 9.53077C25.6202 7.9547 23.6045 7.16667 21.5086 7.16667C19.4126 7.16667 17.3942 7.95515 15.4532 9.53211C13.5122 11.1088 12.5417 13.4436 12.5417 16.5366C12.5417 18.5684 13.2762 20.6754 14.7451 22.8576C16.2139 25.0399 18.4805 27.3495 21.5449 29.7865ZM21.5001 33.1458C17.5904 30.2227 14.672 27.3838 12.7451 24.6291C10.8179 21.8748 9.85425 19.1765 9.85425 16.5344C9.85425 14.5388 10.2063 12.791 10.9104 11.2911C11.6146 9.79116 12.5235 8.5352 13.6374 7.52321C14.7515 6.51151 16.0015 5.75125 17.3873 5.24242C18.7729 4.73358 20.1447 4.47917 21.5028 4.47917C22.8609 4.47917 24.2318 4.73358 25.6155 5.24242C26.9996 5.75125 28.2487 6.51151 29.3628 7.52321C30.4766 8.5352 31.3856 9.79161 32.0897 11.2924C32.7939 12.7932 33.1459 14.5397 33.1459 16.5317C33.1459 19.1741 32.1823 21.8728 30.2551 24.6278C28.3281 27.3828 25.4098 30.2221 21.5001 33.1458ZM21.5086 19.5189C22.3964 19.5189 23.1566 19.2053 23.7894 18.5782C24.4224 17.9512 24.739 17.1879 24.739 16.2885C24.739 15.3894 24.4218 14.6234 23.7876 13.9907C23.1533 13.3576 22.3908 13.0411 21.5001 13.0411C20.618 13.0411 19.8577 13.3582 19.2193 13.9925C18.5806 14.627 18.2612 15.3895 18.2612 16.28C18.2612 17.1851 18.5806 17.9512 19.2193 18.5782C19.8577 19.2053 20.6208 19.5189 21.5086 19.5189Z" fill="#E5DDC6"/>
</g>
</svg>
