<svg width="24" height="24" viewBox="0 0 24 24" fill="none" xmlns="http://www.w3.org/2000/svg">
<mask id="mask0_30_29" style="mask-type:alpha" maskUnits="userSpaceOnUse" x="0" y="0" width="24" height="24">
<rect width="24" height="24" fill="#D9D9D9"/>
</mask>
<g mask="url(#mask0_30_29)">
<path d="M12.0405 20.9807C11.1673 20.9807 10.3962 20.6855 9.72701 20.095C9.05767 19.5047 8.68267 18.7973 8.60201 17.973C7.82767 18.3012 7.01934 18.3342 6.17701 18.072C5.33467 17.8098 4.68784 17.3063 4.23651 16.5615C3.78151 15.8192 3.64151 15.0022 3.81651 14.1105C3.99151 13.2188 4.43926 12.5146 5.15976 11.9978C4.45976 11.4941 4.01967 10.8092 3.83951 9.94325C3.65934 9.07725 3.78142 8.27308 4.20576 7.53075C4.63009 6.78842 5.26926 6.267 6.12326 5.9665C6.97709 5.66583 7.79309 5.67958 8.57126 6.00775C8.65192 5.17058 9.02692 4.46 9.69626 3.876C10.3654 3.292 11.1365 3 12.0095 3C12.8827 3 13.6538 3.292 14.323 3.876C14.9923 4.46 15.3673 5.17058 15.448 6.00775C16.2467 5.67958 17.0595 5.65808 17.8865 5.94325C18.7133 6.22858 19.3493 6.75775 19.7943 7.53075C20.2186 8.29358 20.3458 9.10033 20.176 9.951C20.006 10.8017 19.5608 11.4847 18.8403 12C19.5608 12.5153 20.0111 13.2137 20.1913 14.0953C20.3714 14.9766 20.2493 15.7987 19.825 16.5615C19.3737 17.3473 18.7378 17.8611 17.9173 18.1027C17.0968 18.3444 16.2839 18.3012 15.4788 17.973C15.3981 18.7973 15.0231 19.5047 14.3538 20.095C13.6846 20.6855 12.9135 20.9807 12.0405 20.9807ZM12.0405 19.4807C12.8238 19.4807 13.4113 19.1432 13.803 18.4682C14.1947 17.7932 14.1905 17.1307 13.7905 16.4808L13.0905 15.3308C12.9072 15.3904 12.7322 15.4351 12.5655 15.4648C12.3988 15.4946 12.2238 15.5095 12.0405 15.5095C11.8738 15.5095 11.7046 15.4954 11.5328 15.4672C11.3609 15.4391 11.1802 15.3968 10.9905 15.3403L10.2905 16.4808C9.89051 17.1307 9.88634 17.7932 10.278 18.4682C10.6697 19.1432 11.2572 19.4807 12.0405 19.4807ZM5.47801 15.75C5.87467 16.4205 6.46184 16.7557 7.23951 16.7557C8.01701 16.7557 8.59809 16.4205 8.98276 15.75L9.64226 14.5903C9.50259 14.4569 9.37442 14.3184 9.25776 14.1748C9.14109 14.0309 9.04109 13.8791 8.95776 13.7192C8.87442 13.5693 8.80101 13.4135 8.73751 13.252C8.67401 13.0903 8.62051 12.923 8.57701 12.75H7.23276C6.46226 12.75 5.88209 13.0823 5.49226 13.747C5.10259 14.4118 5.09784 15.0795 5.47801 15.75ZM15.0173 15.75C15.3943 16.4142 15.9734 16.7478 16.7548 16.751C17.5363 16.7542 18.1253 16.4205 18.522 15.75C18.9022 15.0795 18.8974 14.4118 18.5078 13.747C18.1179 13.0823 17.5378 12.75 16.7673 12.75H15.4238C15.3899 12.923 15.3403 13.0903 15.275 13.252C15.2097 13.4135 15.1353 13.5677 15.052 13.7148C14.9687 13.8779 14.867 14.0313 14.747 14.175C14.6272 14.3185 14.4974 14.4569 14.3578 14.5903L15.0173 15.75ZM8.57701 11.25C8.62217 11.0688 8.67867 10.8918 8.74651 10.719C8.81417 10.5462 8.89043 10.3848 8.97526 10.2348C9.05993 10.0848 9.15734 9.94308 9.26751 9.80975C9.37768 9.67642 9.50259 9.54308 9.64226 9.40975L8.98276 8.25C8.59942 7.57317 8.01867 7.23308 7.24051 7.22975C6.46217 7.22658 5.87626 7.56667 5.48276 8.25C5.10576 8.9205 5.11059 9.58817 5.49726 10.253C5.88376 10.9177 6.46226 11.25 7.23276 11.25H8.57701ZM16.7673 11.25C17.5378 11.25 18.1163 10.9177 18.5028 10.253C18.8894 9.58817 18.8943 8.9205 18.5173 8.25C18.1238 7.56667 17.5378 7.22658 16.7595 7.22975C15.9813 7.23308 15.4006 7.57317 15.0173 8.25L14.3578 9.40975C14.4984 9.54308 14.6258 9.67642 14.74 9.80975C14.8543 9.94308 14.9532 10.0848 15.0365 10.2348C15.1198 10.3848 15.1942 10.5462 15.2595 10.719C15.325 10.8918 15.3795 11.0688 15.423 11.25H16.7673ZM10.9443 8.65975C11.1339 8.59692 11.3139 8.553 11.4843 8.528C11.6546 8.503 11.829 8.4905 12.0075 8.4905C12.1858 8.4905 12.3614 8.50458 12.5343 8.53275C12.7073 8.56092 12.8843 8.60325 13.0655 8.65975L13.7595 7.5C14.1493 6.85 14.151 6.1875 13.7645 5.5125C13.3778 4.8375 12.7928 4.5 12.0095 4.5C11.2262 4.5 10.6428 4.83492 10.2595 5.50475C9.87617 6.17475 9.87617 6.83983 10.2595 7.5L10.9443 8.65975ZM8.95776 13.7192C8.87442 13.5693 8.80101 13.4135 8.73751 13.252C8.80101 13.4135 8.87442 13.5677 8.95776 13.7148C9.04109 13.8779 9.14109 14.0311 9.25776 14.1748C9.14109 14.0309 9.04109 13.8791 8.95776 13.7192ZM8.74651 10.719C8.81417 10.5462 8.89043 10.3848 8.97526 10.2348C9.05993 10.0848 9.15734 9.94308 9.26751 9.80975C9.37768 9.67642 9.50259 9.54308 9.64226 9.40975C9.50509 9.54308 9.38067 9.67642 9.26901 9.80975C9.15751 9.94308 9.05884 10.0848 8.97301 10.2348C8.88968 10.3848 8.81417 10.5462 8.74651 10.719ZM12.0405 15.5095C11.8738 15.5095 11.7046 15.4954 11.5328 15.4672C11.3609 15.4391 11.1802 15.3968 10.9905 15.3403C11.1802 15.3968 11.3617 15.4391 11.535 15.4672C11.7085 15.4954 11.8778 15.5095 12.043 15.5095C12.2247 15.5095 12.3988 15.4946 12.5655 15.4648C12.3988 15.4946 12.2238 15.5095 12.0405 15.5095ZM14.3578 14.5903C14.4974 14.4569 14.6268 14.3184 14.7458 14.1748C14.8648 14.0309 14.9668 13.8791 15.052 13.7192C15.1353 13.5693 15.2097 13.4135 15.275 13.252C15.2097 13.4135 15.1353 13.5677 15.052 13.7148C14.9687 13.8779 14.867 14.0313 14.747 14.175C14.6272 14.3185 14.4974 14.4569 14.3578 14.5903ZM12 14C12.55 14 13.0208 13.8042 13.4125 13.4125C13.8042 13.0208 14 12.55 14 12C14 11.45 13.8042 10.9792 13.4125 10.5875C13.0208 10.1958 12.55 10 12 10C11.45 10 10.9792 10.1958 10.5875 10.5875C10.1958 10.9792 10 11.45 10 12C10 12.55 10.1958 13.0208 10.5875 13.4125C10.9792 13.8042 11.45 14 12 14Z" fill="#1C1B1F"/>
</g>
</svg>
