<svg width="43" height="43" viewBox="0 0 43 43" fill="none" xmlns="http://www.w3.org/2000/svg">
<mask id="mask0_78_618" style="mask-type:alpha" maskUnits="userSpaceOnUse" x="0" y="0" width="43" height="43">
<rect width="43" height="43" fill="#D9D9D9"/>
</mask>
<g mask="url(#mask0_78_618)">
<path d="M21.5001 38.5208C19.1455 38.5208 16.9328 38.0741 14.862 37.1807C12.7911 36.2872 10.9897 35.0747 9.45784 33.5431C7.92597 32.0116 6.71331 30.2105 5.81986 28.1399C4.92612 26.0693 4.47925 23.8571 4.47925 21.5031C4.47925 19.1489 4.92597 16.936 5.81941 14.8646C6.71286 12.7931 7.92537 10.9913 9.45695 9.4591C10.9885 7.92693 12.7896 6.71382 14.8602 5.81978C16.9307 4.92604 19.143 4.47917 21.4969 4.47917C23.8512 4.47917 26.0641 4.92604 28.1355 5.81978C30.207 6.71322 32.0088 7.92589 33.541 9.45776C35.0732 10.9896 36.2863 12.791 37.1803 14.8619C38.074 16.9327 38.5209 19.1455 38.5209 21.5C38.5209 22.3062 38.4703 23.0976 38.3691 23.874C38.2681 24.6503 38.1073 25.4118 37.8867 26.1583C37.5606 25.8185 37.1931 25.5274 36.7843 25.2849C36.3755 25.0427 35.9288 24.8733 35.4442 24.7765C35.5797 24.2483 35.6784 23.7126 35.7402 23.1694C35.8024 22.6262 35.8334 22.0697 35.8334 21.5C35.8334 17.4986 34.4449 14.1094 31.6678 11.3323C28.8907 8.55521 25.5015 7.16667 21.5001 7.16667C17.4987 7.16667 14.1095 8.55521 11.3324 11.3323C8.55529 14.1094 7.16675 17.4986 7.16675 21.5C7.16675 25.5014 8.55529 28.8906 11.3324 31.6677C14.1095 34.4448 17.4987 35.8333 21.5001 35.8333C23.069 35.8333 24.5619 35.5973 25.9788 35.1252C27.3957 34.6531 28.6983 33.9921 29.8864 33.1423C30.1644 33.5122 30.4901 33.8453 30.8633 34.1416C31.2366 34.4378 31.6414 34.6732 32.0776 34.8479C30.6237 36.0032 29.0036 36.9042 27.2173 37.5506C25.431 38.1974 23.5253 38.5208 21.5001 38.5208ZM34.2321 31.8021C33.7307 31.8021 33.3067 31.629 32.96 31.2829C32.613 30.9366 32.4396 30.5127 32.4396 30.0113C32.4396 29.5099 32.6126 29.0859 32.9587 28.7392C33.3051 28.3922 33.729 28.2188 34.2303 28.2188C34.7317 28.2188 35.1557 28.3918 35.5024 28.7379C35.8494 29.0843 36.0229 29.5082 36.0229 30.0095C36.0229 30.5109 35.8498 30.9349 35.5037 31.2816C35.1574 31.6286 34.7335 31.8021 34.2321 31.8021ZM27.7225 29.6109L20.1563 22.0442V12.5417H22.8438V20.9558L29.611 27.7225L27.7225 29.6109Z" fill="#E5DDC6"/>
</g>
</svg>
